<svg xmlns="http://www.w3.org/2000/svg" width="44" height="121" viewBox="0 0 44 121"><style>.pattern{fill:#ebebeb;}</style><path class="pattern" d="M0 117.84V121h7.742l14.787-10.658L37.315 121H44v-3.022l-22.187-16.153M0 77.592v8.196l21.93-16.05L44 85.847V77.46L22.094 61.444M0 17.02v8.16L21.907 9.164 44 25.28v-8.394L22.095.87"/><path class="pattern" d="M0 57.402v8.16l21.907-16.016L44 65.663v-8.395L22.095 41.252M0 97.862v8.117l21.93-16.052L44 106.038v-8.25L21.812 81.74"/><path class="pattern" d="M0 37.21v8.16l21.907-16.016L44 45.472v-8.395L22.095 21.06M0 0v5.85L7.89 0M37.165 0L44 5.6V0"/></svg>